<svg width="19" height="18" viewBox="0 0 19 18" fill="none" xmlns="http://www.w3.org/2000/svg">
<g clip-path="url(#clip0_9_1305)">
<path d="M17.8787 9C17.8787 4.18359 13.9763 0.28125 9.15991 0.28125C4.34351 0.28125 0.441162 4.18359 0.441162 9C0.441162 13.3516 3.62948 16.9587 7.79761 17.6133V11.5204H5.58276V9H7.79761V7.07906C7.79761 4.8941 9.09839 3.68719 11.0907 3.68719C12.0448 3.68719 13.0426 3.85734 13.0426 3.85734V6.00187H11.9429C10.8601 6.00187 10.5222 6.67406 10.5222 7.36348V9H12.9403L12.5535 11.5204H10.5222V17.6133C14.6903 16.9587 17.8787 13.3516 17.8787 9Z" fill="white"/>
</g>
<defs>
<clipPath id="clip0_9_1305">
<rect width="18" height="18" fill="white" transform="translate(0.159912)"/>
</clipPath>
</defs>
</svg>
