<svg width="19" height="18" viewBox="0 0 19 18" fill="none" xmlns="http://www.w3.org/2000/svg">
<g clip-path="url(#clip0_9_1308)">
<path d="M9.16338 4.95702C6.92744 4.95702 5.12393 6.76053 5.12393 8.99647C5.12393 11.2324 6.92744 13.0359 9.16338 13.0359C11.3993 13.0359 13.2028 11.2324 13.2028 8.99647C13.2028 6.76053 11.3993 4.95702 9.16338 4.95702ZM9.16338 11.6226C7.71846 11.6226 6.53721 10.4449 6.53721 8.99647C6.53721 7.54803 7.71494 6.3703 9.16338 6.3703C10.6118 6.3703 11.7896 7.54803 11.7896 8.99647C11.7896 10.4449 10.6083 11.6226 9.16338 11.6226ZM14.3103 4.79178C14.3103 5.31561 13.8884 5.73397 13.3681 5.73397C12.8442 5.73397 12.4259 5.3121 12.4259 4.79178C12.4259 4.27147 12.8478 3.8496 13.3681 3.8496C13.8884 3.8496 14.3103 4.27147 14.3103 4.79178ZM16.9856 5.74803C16.9259 4.48593 16.6376 3.36796 15.713 2.44686C14.7919 1.52577 13.6739 1.23749 12.4118 1.17421C11.111 1.10038 7.21221 1.10038 5.91143 1.17421C4.65283 1.23397 3.53486 1.52225 2.61025 2.44335C1.68564 3.36444 1.40088 4.48241 1.3376 5.74452C1.26377 7.0453 1.26377 10.9441 1.3376 12.2449C1.39736 13.507 1.68564 14.625 2.61025 15.5461C3.53486 16.4672 4.64932 16.7555 5.91143 16.8187C7.21221 16.8926 11.111 16.8926 12.4118 16.8187C13.6739 16.759 14.7919 16.4707 15.713 15.5461C16.6341 14.625 16.9224 13.507 16.9856 12.2449C17.0595 10.9441 17.0595 7.04882 16.9856 5.74803ZM15.3052 13.6406C15.031 14.3297 14.5001 14.8605 13.8075 15.1383C12.7704 15.5496 10.3095 15.4547 9.16338 15.4547C8.01729 15.4547 5.55283 15.5461 4.51924 15.1383C3.83018 14.864 3.29932 14.3332 3.02158 13.6406C2.61025 12.6035 2.70518 10.1426 2.70518 8.99647C2.70518 7.85038 2.61377 5.38593 3.02158 4.35233C3.2958 3.66327 3.82666 3.13241 4.51924 2.85468C5.55635 2.44335 8.01729 2.53827 9.16338 2.53827C10.3095 2.53827 12.7739 2.44686 13.8075 2.85468C14.4966 3.12889 15.0274 3.65975 15.3052 4.35233C15.7165 5.38944 15.6216 7.85038 15.6216 8.99647C15.6216 10.1426 15.7165 12.607 15.3052 13.6406Z" fill="white"/>
</g>
<defs>
<clipPath id="clip0_9_1308">
<rect width="18" height="18" fill="white" transform="translate(0.159912)"/>
</clipPath>
</defs>
</svg>
