<svg width="19" height="18" viewBox="0 0 19 18" fill="none" xmlns="http://www.w3.org/2000/svg">
<g clip-path="url(#clip0_9_1302)">
<path d="M15.9099 1.125H2.4064C1.78765 1.125 1.28491 1.63477 1.28491 2.26055V15.7395C1.28491 16.3652 1.78765 16.875 2.4064 16.875H15.9099C16.5287 16.875 17.0349 16.3652 17.0349 15.7395V2.26055C17.0349 1.63477 16.5287 1.125 15.9099 1.125ZM6.04507 14.625H3.71069V7.10859H6.04858V14.625H6.04507ZM4.87788 6.08203C4.12905 6.08203 3.52437 5.47383 3.52437 4.72852C3.52437 3.9832 4.12905 3.375 4.87788 3.375C5.62319 3.375 6.2314 3.9832 6.2314 4.72852C6.2314 5.47734 5.62671 6.08203 4.87788 6.08203ZM14.7955 14.625H12.4611V10.9688C12.4611 10.0969 12.4435 8.97539 11.2482 8.97539C10.0318 8.97539 9.84546 9.92461 9.84546 10.9055V14.625H7.51108V7.10859H9.75054V8.13516H9.78218C10.0951 7.54453 10.858 6.92227 11.9935 6.92227C14.356 6.92227 14.7955 8.47969 14.7955 10.5047V14.625Z" fill="white"/>
</g>
<defs>
<clipPath id="clip0_9_1302">
<rect width="18" height="18" fill="white" transform="translate(0.159912)"/>
</clipPath>
</defs>
</svg>
