<svg width="18" height="18" viewBox="0 0 18 18" fill="none" xmlns="http://www.w3.org/2000/svg">
<path d="M6.91666 12.75L12.75 8.99999L6.91666 5.24999V12.75ZM9 17.3333C7.84722 17.3333 6.76389 17.1146 5.75 16.6771C4.73611 16.2396 3.85416 15.6458 3.10416 14.8958C2.35416 14.1458 1.76041 13.2639 1.32291 12.25C0.885414 11.2361 0.666664 10.1528 0.666664 8.99999C0.666664 7.84721 0.885414 6.76388 1.32291 5.74999C1.76041 4.7361 2.35416 3.85416 3.10416 3.10416C3.85416 2.35416 4.73611 1.76041 5.75 1.32291C6.76389 0.885406 7.84722 0.666656 9 0.666656C10.1528 0.666656 11.2361 0.885406 12.25 1.32291C13.2639 1.76041 14.1458 2.35416 14.8958 3.10416C15.6458 3.85416 16.2396 4.7361 16.6771 5.74999C17.1146 6.76388 17.3333 7.84721 17.3333 8.99999C17.3333 10.1528 17.1146 11.2361 16.6771 12.25C16.2396 13.2639 15.6458 14.1458 14.8958 14.8958C14.1458 15.6458 13.2639 16.2396 12.25 16.6771C11.2361 17.1146 10.1528 17.3333 9 17.3333ZM9 15.6667C10.8611 15.6667 12.4375 15.0208 13.7292 13.7292C15.0208 12.4375 15.6667 10.8611 15.6667 8.99999C15.6667 7.13888 15.0208 5.56249 13.7292 4.27082C12.4375 2.97916 10.8611 2.33332 9 2.33332C7.13889 2.33332 5.5625 2.97916 4.27083 4.27082C2.97916 5.56249 2.33333 7.13888 2.33333 8.99999C2.33333 10.8611 2.97916 12.4375 4.27083 13.7292C5.5625 15.0208 7.13889 15.6667 9 15.6667Z" fill="white"/>
</svg>
