<svg width="14" height="16" viewBox="0 0 14 16" fill="none" xmlns="http://www.w3.org/2000/svg">
<g clip-path="url(#clip0_9_1297)">
<path d="M6.66003 3.14062C5.31433 3.14062 4.22253 4.23242 4.22253 5.57812C4.22253 6.92383 5.31433 8.01562 6.66003 8.01562C8.00574 8.01562 9.09753 6.92383 9.09753 5.57812C9.09753 4.23242 8.00574 3.14062 6.66003 3.14062ZM6.66003 6.79688C5.98718 6.79688 5.44128 6.25098 5.44128 5.57812C5.44128 4.90527 5.98718 4.35938 6.66003 4.35938C7.33289 4.35938 7.87878 4.90527 7.87878 5.57812C7.87878 6.25098 7.33289 6.79688 6.66003 6.79688ZM6.66003 0.703125C3.18152 0.703125 0.363159 3.52148 0.363159 7C0.363159 10.4785 3.18152 13.2969 6.66003 13.2969C10.1385 13.2969 12.9569 10.4785 12.9569 7C12.9569 3.52148 10.1385 0.703125 6.66003 0.703125ZM6.66003 12.0781C5.39812 12.0781 4.24539 11.6135 3.35671 10.8492C3.73503 10.2652 4.38249 9.86914 5.1239 9.84629C5.65203 10.0088 6.15476 10.09 6.66003 10.09C7.16531 10.09 7.66804 10.0113 8.19617 9.84629C8.93757 9.87168 9.58503 10.2652 9.96336 10.8492C9.07468 11.6135 7.92195 12.0781 6.66003 12.0781ZM10.7911 9.94277C10.1716 9.14551 9.21433 8.625 8.12253 8.625C7.86355 8.625 7.46238 8.86875 6.66003 8.86875C5.86023 8.86875 5.45652 8.625 5.19753 8.625C4.10828 8.625 3.15105 9.14551 2.52898 9.94277C1.93484 9.1125 1.58191 8.09688 1.58191 7C1.58191 4.19941 3.85945 1.92188 6.66003 1.92188C9.46062 1.92188 11.7382 4.19941 11.7382 7C11.7382 8.09688 11.3852 9.1125 10.7911 9.94277Z" fill="white"/>
</g>
<defs>
<clipPath id="clip0_9_1297">
<rect width="13" height="13" fill="white" transform="translate(0.160034 0.5)"/>
</clipPath>
</defs>
</svg>
