<svg width="19" height="18" viewBox="0 0 19 18" fill="none" xmlns="http://www.w3.org/2000/svg">
<g clip-path="url(#clip0_9_1311)">
<path d="M14.6759 3.41367C13.2029 1.93711 11.2412 1.125 9.1564 1.125C4.85327 1.125 1.35171 4.62656 1.35171 8.92969C1.35171 10.3043 1.7103 11.6473 2.39233 12.832L1.28491 16.875L5.4228 15.7887C6.56187 16.4109 7.84507 16.7379 9.15288 16.7379H9.1564C13.456 16.7379 17.0349 13.2363 17.0349 8.9332C17.0349 6.84844 16.149 4.89023 14.6759 3.41367ZM9.1564 15.423C7.98921 15.423 6.84663 15.1102 5.85171 14.5195L5.61616 14.3789L3.16226 15.0223L3.81616 12.6281L3.66147 12.382C3.01108 11.3484 2.67007 10.1566 2.67007 8.92969C2.67007 5.3543 5.58101 2.44336 9.15991 2.44336C10.8931 2.44336 12.5208 3.11836 13.7443 4.34531C14.9677 5.57227 15.7201 7.2 15.7166 8.9332C15.7166 12.5121 12.7318 15.423 9.1564 15.423ZM12.7142 10.5645C12.5209 10.466 11.5611 9.99492 11.3818 9.93164C11.2025 9.86484 11.0724 9.8332 10.9423 10.0301C10.8123 10.227 10.4396 10.6629 10.3236 10.7965C10.2111 10.9266 10.0951 10.9441 9.90171 10.8457C8.75562 10.2727 8.00327 9.82266 7.24741 8.52539C7.04702 8.18086 7.4478 8.20547 7.82046 7.46016C7.88374 7.33008 7.8521 7.21758 7.80288 7.11914C7.75366 7.0207 7.36343 6.06094 7.20171 5.6707C7.04351 5.29102 6.88179 5.34375 6.76226 5.33672C6.64976 5.32969 6.51968 5.32969 6.3896 5.32969C6.25952 5.32969 6.04858 5.37891 5.86929 5.57227C5.68999 5.76914 5.18726 6.24023 5.18726 7.2C5.18726 8.15977 5.88687 9.08789 5.98179 9.21797C6.08022 9.34805 7.3564 11.3168 9.3146 12.1641C10.5521 12.6984 11.0373 12.7441 11.656 12.6527C12.0322 12.5965 12.8091 12.1816 12.9708 11.7246C13.1326 11.2676 13.1326 10.8773 13.0834 10.7965C13.0376 10.7086 12.9076 10.6594 12.7142 10.5645Z" fill="white"/>
</g>
<defs>
<clipPath id="clip0_9_1311">
<rect width="18" height="18" fill="white" transform="translate(0.159912)"/>
</clipPath>
</defs>
</svg>
